<svg id="visual" viewBox="0 0 1920 1080" width="1920" height="1080" xmlns="http://www.w3.org/2000/svg" xmlns:xlink="http://www.w3.org/1999/xlink" version="1.1"><g stroke-width="1" stroke-linejoin="bevel"><path d="M979 590.1L942 828.4L1127 663.1Z" fill="#4f007c" stroke="#7C006B"></path><path d="M942 828.4L1125 816.4L1127 663.1Z" fill="#1d007c" stroke="#7C006B"></path><path d="M942 828.4L1001 900.7L1125 816.4Z" fill="#25007c" stroke="#7C006B"></path><path d="M979 590.1L774 655.1L942 828.4Z" fill="#2c007c" stroke="#7C006B"></path><path d="M942 828.4L781 991.7L1001 900.7Z" fill="#2c007c" stroke="#7C006B"></path><path d="M1001 900.7L1150 916.7L1125 816.4Z" fill="#3d007c" stroke="#7C006B"></path><path d="M1125 816.4L1285 837.4L1127 663.1Z" fill="#4f007c" stroke="#7C006B"></path><path d="M774 655.1L750 775.4L942 828.4Z" fill="#11007c" stroke="#7C006B"></path><path d="M1150 916.7L1285 837.4L1125 816.4Z" fill="#3d007c" stroke="#7C006B"></path><path d="M1141 401.9L950 414.9L979 590.1Z" fill="#3d007c" stroke="#7C006B"></path><path d="M979 590.1L857 395.9L774 655.1Z" fill="#1d007c" stroke="#7C006B"></path><path d="M1141 401.9L979 590.1L1127 663.1Z" fill="#3d007c" stroke="#7C006B"></path><path d="M617 577.1L700 829.4L750 775.4Z" fill="#42007c" stroke="#7C006B"></path><path d="M750 775.4L781 991.7L942 828.4Z" fill="#1d007c" stroke="#7C006B"></path><path d="M1292 513.9L1141 401.9L1127 663.1Z" fill="#2c007c" stroke="#7C006B"></path><path d="M1331 583.1L1292 513.9L1127 663.1Z" fill="#2c007c" stroke="#7C006B"></path><path d="M1285 837.4L1331 583.1L1127 663.1Z" fill="#4b007c" stroke="#7C006B"></path><path d="M700 829.4L781 991.7L750 775.4Z" fill="#11007c" stroke="#7C006B"></path><path d="M1001 900.7L1083 1080L1150 916.7Z" fill="#4f007c" stroke="#7C006B"></path><path d="M980 283.6L857 395.9L950 414.9Z" fill="#38007c" stroke="#7C006B"></path><path d="M950 414.9L857 395.9L979 590.1Z" fill="#4f007c" stroke="#7C006B"></path><path d="M774 655.1L617 577.1L750 775.4Z" fill="#32007c" stroke="#7C006B"></path><path d="M689 868.7L781 991.7L700 829.4Z" fill="#4f007c" stroke="#7C006B"></path><path d="M781 991.7L946 1080L1001 900.7Z" fill="#3d007c" stroke="#7C006B"></path><path d="M1150 916.7L1346 976.7L1285 837.4Z" fill="#1d007c" stroke="#7C006B"></path><path d="M946 1080L1083 1080L1001 900.7Z" fill="#3d007c" stroke="#7C006B"></path><path d="M1292 513.9L1160 361.6L1141 401.9Z" fill="#32007c" stroke="#7C006B"></path><path d="M1141 401.9L980 283.6L950 414.9Z" fill="#1d007c" stroke="#7C006B"></path><path d="M641 500.9L617 577.1L774 655.1Z" fill="#38007c" stroke="#7C006B"></path><path d="M700 829.4L529 808.4L689 868.7Z" fill="#47007c" stroke="#7C006B"></path><path d="M1083 1080L1217 1080L1150 916.7Z" fill="#32007c" stroke="#7C006B"></path><path d="M1217 1080L1346 976.7L1150 916.7Z" fill="#47007c" stroke="#7C006B"></path><path d="M1285 837.4L1445 760.4L1331 583.1Z" fill="#47007c" stroke="#7C006B"></path><path d="M857 395.9L641 500.9L774 655.1Z" fill="#47007c" stroke="#7C006B"></path><path d="M1160 361.6L980 283.6L1141 401.9Z" fill="#38007c" stroke="#7C006B"></path><path d="M857 395.9L696 287.6L641 500.9Z" fill="#25007c" stroke="#7C006B"></path><path d="M1346 976.7L1445 760.4L1285 837.4Z" fill="#4f007c" stroke="#7C006B"></path><path d="M1331 583.1L1383 433.9L1292 513.9Z" fill="#25007c" stroke="#7C006B"></path><path d="M605 1080L733 1080L781 991.7Z" fill="#4b007c" stroke="#7C006B"></path><path d="M781 991.7L733 1080L946 1080Z" fill="#2c007c" stroke="#7C006B"></path><path d="M605 1080L781 991.7L689 868.7Z" fill="#4b007c" stroke="#7C006B"></path><path d="M1485 640.1L1383 433.9L1331 583.1Z" fill="#3d007c" stroke="#7C006B"></path><path d="M1292 513.9L1383 433.9L1160 361.6Z" fill="#4f007c" stroke="#7C006B"></path><path d="M1160 361.6L1084 116.3L980 283.6Z" fill="#42007c" stroke="#7C006B"></path><path d="M980 283.6L819 276.6L857 395.9Z" fill="#2c007c" stroke="#7C006B"></path><path d="M1445 760.4L1485 640.1L1331 583.1Z" fill="#11007c" stroke="#7C006B"></path><path d="M515 630.1L529 808.4L617 577.1Z" fill="#4f007c" stroke="#7C006B"></path><path d="M617 577.1L529 808.4L700 829.4Z" fill="#25007c" stroke="#7C006B"></path><path d="M1383 433.9L1238 276.6L1160 361.6Z" fill="#32007c" stroke="#7C006B"></path><path d="M980 283.6L849 175.3L819 276.6Z" fill="#11007c" stroke="#7C006B"></path><path d="M508 448.9L617 577.1L641 500.9Z" fill="#4f007c" stroke="#7C006B"></path><path d="M508 448.9L515 630.1L617 577.1Z" fill="#38007c" stroke="#7C006B"></path><path d="M1443 1080L1448 987.7L1346 976.7Z" fill="#42007c" stroke="#7C006B"></path><path d="M1346 976.7L1448 987.7L1445 760.4Z" fill="#25007c" stroke="#7C006B"></path><path d="M1445 760.4L1590 672.1L1485 640.1Z" fill="#42007c" stroke="#7C006B"></path><path d="M819 276.6L696 287.6L857 395.9Z" fill="#1d007c" stroke="#7C006B"></path><path d="M1448 987.7L1534 810.4L1445 760.4Z" fill="#38007c" stroke="#7C006B"></path><path d="M381 721.4L486 861.7L529 808.4Z" fill="#42007c" stroke="#7C006B"></path><path d="M529 808.4L486 861.7L689 868.7Z" fill="#47007c" stroke="#7C006B"></path><path d="M486 861.7L605 1080L689 868.7Z" fill="#47007c" stroke="#7C006B"></path><path d="M1423 303.6L1265 221.3L1238 276.6Z" fill="#42007c" stroke="#7C006B"></path><path d="M1084 116.3L946 153.3L980 283.6Z" fill="#38007c" stroke="#7C006B"></path><path d="M819 276.6L849 175.3L696 287.6Z" fill="#4f007c" stroke="#7C006B"></path><path d="M946 153.3L849 175.3L980 283.6Z" fill="#47007c" stroke="#7C006B"></path><path d="M1217 1080L1443 1080L1346 976.7Z" fill="#47007c" stroke="#7C006B"></path><path d="M1448 987.7L1537 970.7L1534 810.4Z" fill="#1d007c" stroke="#7C006B"></path><path d="M1084 116.3L1160 361.6L1238 276.6Z" fill="#47007c" stroke="#7C006B"></path><path d="M696 287.6L508 448.9L641 500.9Z" fill="#2c007c" stroke="#7C006B"></path><path d="M515 630.1L381 721.4L529 808.4Z" fill="#1d007c" stroke="#7C006B"></path><path d="M1696 882.7L1590 672.1L1534 810.4Z" fill="#3d007c" stroke="#7C006B"></path><path d="M1534 810.4L1590 672.1L1445 760.4Z" fill="#1d007c" stroke="#7C006B"></path><path d="M1485 640.1L1564 481.9L1383 433.9Z" fill="#38007c" stroke="#7C006B"></path><path d="M1383 433.9L1423 303.6L1238 276.6Z" fill="#25007c" stroke="#7C006B"></path><path d="M1564 481.9L1423 303.6L1383 433.9Z" fill="#25007c" stroke="#7C006B"></path><path d="M1443 1080L1537 970.7L1448 987.7Z" fill="#1d007c" stroke="#7C006B"></path><path d="M486 861.7L542 1080L605 1080Z" fill="#11007c" stroke="#7C006B"></path><path d="M1590 672.1L1564 481.9L1485 640.1Z" fill="#2c007c" stroke="#7C006B"></path><path d="M1115 0L1084 116.3L1265 221.3Z" fill="#3d007c" stroke="#7C006B"></path><path d="M1265 221.3L1084 116.3L1238 276.6Z" fill="#32007c" stroke="#7C006B"></path><path d="M840 0L663 107.3L849 175.3Z" fill="#25007c" stroke="#7C006B"></path><path d="M289 597.1L381 721.4L515 630.1Z" fill="#4b007c" stroke="#7C006B"></path><path d="M486 861.7L320 1080L542 1080Z" fill="#42007c" stroke="#7C006B"></path><path d="M1607 333.6L1456 218.3L1423 303.6Z" fill="#38007c" stroke="#7C006B"></path><path d="M1423 303.6L1456 218.3L1265 221.3Z" fill="#4b007c" stroke="#7C006B"></path><path d="M448 298.6L376 476.9L508 448.9Z" fill="#38007c" stroke="#7C006B"></path><path d="M508 448.9L376 476.9L515 630.1Z" fill="#3d007c" stroke="#7C006B"></path><path d="M448 298.6L508 448.9L696 287.6Z" fill="#2c007c" stroke="#7C006B"></path><path d="M663 107.3L448 298.6L696 287.6Z" fill="#25007c" stroke="#7C006B"></path><path d="M849 175.3L663 107.3L696 287.6Z" fill="#42007c" stroke="#7C006B"></path><path d="M840 0L849 175.3L946 153.3Z" fill="#11007c" stroke="#7C006B"></path><path d="M1648 1080L1696 882.7L1537 970.7Z" fill="#2c007c" stroke="#7C006B"></path><path d="M1537 970.7L1696 882.7L1534 810.4Z" fill="#4b007c" stroke="#7C006B"></path><path d="M1590 672.1L1714 652.1L1564 481.9Z" fill="#1d007c" stroke="#7C006B"></path><path d="M1696 882.7L1714 652.1L1590 672.1Z" fill="#3d007c" stroke="#7C006B"></path><path d="M1564 481.9L1607 333.6L1423 303.6Z" fill="#4b007c" stroke="#7C006B"></path><path d="M1742 464.9L1607 333.6L1564 481.9Z" fill="#4f007c" stroke="#7C006B"></path><path d="M1115 0L958 0L1084 116.3Z" fill="#11007c" stroke="#7C006B"></path><path d="M1084 116.3L958 0L946 153.3Z" fill="#38007c" stroke="#7C006B"></path><path d="M1344 0L1115 0L1265 221.3Z" fill="#4b007c" stroke="#7C006B"></path><path d="M226 524.9L289 597.1L376 476.9Z" fill="#1d007c" stroke="#7C006B"></path><path d="M376 476.9L289 597.1L515 630.1Z" fill="#47007c" stroke="#7C006B"></path><path d="M270 974.7L320 1080L486 861.7Z" fill="#3d007c" stroke="#7C006B"></path><path d="M1443 1080L1648 1080L1537 970.7Z" fill="#2c007c" stroke="#7C006B"></path><path d="M958 0L840 0L946 153.3Z" fill="#11007c" stroke="#7C006B"></path><path d="M1920 567.1L1742 464.9L1714 652.1Z" fill="#32007c" stroke="#7C006B"></path><path d="M1714 652.1L1742 464.9L1564 481.9Z" fill="#25007c" stroke="#7C006B"></path><path d="M270 974.7L486 861.7L381 721.4Z" fill="#1d007c" stroke="#7C006B"></path><path d="M112 827.4L270 974.7L381 721.4Z" fill="#2c007c" stroke="#7C006B"></path><path d="M1456 218.3L1344 0L1265 221.3Z" fill="#32007c" stroke="#7C006B"></path><path d="M1466 0L1344 0L1456 218.3Z" fill="#47007c" stroke="#7C006B"></path><path d="M1624 144.3L1456 218.3L1607 333.6Z" fill="#4b007c" stroke="#7C006B"></path><path d="M266 259.6L226 524.9L376 476.9Z" fill="#11007c" stroke="#7C006B"></path><path d="M289 597.1L112 827.4L381 721.4Z" fill="#25007c" stroke="#7C006B"></path><path d="M1920 728.4L1823 718.4L1920 913.7Z" fill="#11007c" stroke="#7C006B"></path><path d="M1696 882.7L1823 718.4L1714 652.1Z" fill="#4f007c" stroke="#7C006B"></path><path d="M663 107.3L465 109.3L448 298.6Z" fill="#47007c" stroke="#7C006B"></path><path d="M448 298.6L266 259.6L376 476.9Z" fill="#4b007c" stroke="#7C006B"></path><path d="M588 0L465 109.3L663 107.3Z" fill="#32007c" stroke="#7C006B"></path><path d="M1920 465.9L1736 334.6L1742 464.9Z" fill="#42007c" stroke="#7C006B"></path><path d="M1742 464.9L1736 334.6L1607 333.6Z" fill="#4f007c" stroke="#7C006B"></path><path d="M840 0L588 0L663 107.3Z" fill="#11007c" stroke="#7C006B"></path><path d="M1736 334.6L1624 144.3L1607 333.6Z" fill="#42007c" stroke="#7C006B"></path><path d="M1624 144.3L1466 0L1456 218.3Z" fill="#2c007c" stroke="#7C006B"></path><path d="M588 0L531 0L465 109.3Z" fill="#4f007c" stroke="#7C006B"></path><path d="M315 169.3L448 298.6L465 109.3Z" fill="#3d007c" stroke="#7C006B"></path><path d="M315 169.3L266 259.6L448 298.6Z" fill="#47007c" stroke="#7C006B"></path><path d="M263 0L315 169.3L465 109.3Z" fill="#38007c" stroke="#7C006B"></path><path d="M1648 1080L1817 1080L1696 882.7Z" fill="#25007c" stroke="#7C006B"></path><path d="M111 600.1L112 827.4L289 597.1Z" fill="#11007c" stroke="#7C006B"></path><path d="M270 974.7L164 1080L320 1080Z" fill="#1d007c" stroke="#7C006B"></path><path d="M111 600.1L289 597.1L226 524.9Z" fill="#25007c" stroke="#7C006B"></path><path d="M0 449.9L111 600.1L226 524.9Z" fill="#11007c" stroke="#7C006B"></path><path d="M1920 913.7L1823 718.4L1696 882.7Z" fill="#47007c" stroke="#7C006B"></path><path d="M1823 718.4L1920 567.1L1714 652.1Z" fill="#25007c" stroke="#7C006B"></path><path d="M104 992.7L164 1080L270 974.7Z" fill="#25007c" stroke="#7C006B"></path><path d="M1920 728.4L1920 567.1L1823 718.4Z" fill="#38007c" stroke="#7C006B"></path><path d="M1726 89.3L1609 0L1624 144.3Z" fill="#3d007c" stroke="#7C006B"></path><path d="M1817 1080L1920 913.7L1696 882.7Z" fill="#42007c" stroke="#7C006B"></path><path d="M1726 89.3L1624 144.3L1736 334.6Z" fill="#25007c" stroke="#7C006B"></path><path d="M1624 144.3L1609 0L1466 0Z" fill="#42007c" stroke="#7C006B"></path><path d="M1920 567.1L1920 465.9L1742 464.9Z" fill="#25007c" stroke="#7C006B"></path><path d="M0 875.7L104 992.7L112 827.4Z" fill="#25007c" stroke="#7C006B"></path><path d="M112 827.4L104 992.7L270 974.7Z" fill="#3d007c" stroke="#7C006B"></path><path d="M1920 149.3L1726 89.3L1736 334.6Z" fill="#25007c" stroke="#7C006B"></path><path d="M1817 1080L1920 1080L1920 913.7Z" fill="#4b007c" stroke="#7C006B"></path><path d="M266 259.6L134 243.6L226 524.9Z" fill="#25007c" stroke="#7C006B"></path><path d="M134 110.3L134 243.6L266 259.6Z" fill="#47007c" stroke="#7C006B"></path><path d="M134 110.3L266 259.6L315 169.3Z" fill="#38007c" stroke="#7C006B"></path><path d="M1920 465.9L1920 317.6L1736 334.6Z" fill="#32007c" stroke="#7C006B"></path><path d="M111 600.1L0 784.4L112 827.4Z" fill="#4f007c" stroke="#7C006B"></path><path d="M0 628.1L0 784.4L111 600.1Z" fill="#32007c" stroke="#7C006B"></path><path d="M0 449.9L0 628.1L111 600.1Z" fill="#1d007c" stroke="#7C006B"></path><path d="M0 784.4L0 875.7L112 827.4Z" fill="#32007c" stroke="#7C006B"></path><path d="M104 992.7L0 1080L164 1080Z" fill="#47007c" stroke="#7C006B"></path><path d="M531 0L263 0L465 109.3Z" fill="#4f007c" stroke="#7C006B"></path><path d="M0 267.6L0 449.9L134 243.6Z" fill="#42007c" stroke="#7C006B"></path><path d="M134 243.6L0 449.9L226 524.9Z" fill="#4b007c" stroke="#7C006B"></path><path d="M1920 149.3L1769 0L1726 89.3Z" fill="#11007c" stroke="#7C006B"></path><path d="M1726 89.3L1769 0L1609 0Z" fill="#25007c" stroke="#7C006B"></path><path d="M263 0L134 110.3L315 169.3Z" fill="#2c007c" stroke="#7C006B"></path><path d="M0 875.7L0 1080L104 992.7Z" fill="#4b007c" stroke="#7C006B"></path><path d="M1920 317.6L1920 149.3L1736 334.6Z" fill="#32007c" stroke="#7C006B"></path><path d="M0 139.3L0 267.6L134 243.6Z" fill="#11007c" stroke="#7C006B"></path><path d="M263 0L156 0L134 110.3Z" fill="#42007c" stroke="#7C006B"></path><path d="M134 110.3L0 139.3L134 243.6Z" fill="#38007c" stroke="#7C006B"></path><path d="M1920 149.3L1920 0L1769 0Z" fill="#4b007c" stroke="#7C006B"></path><path d="M0 0L0 139.3L134 110.3Z" fill="#47007c" stroke="#7C006B"></path><path d="M156 0L0 0L134 110.3Z" fill="#42007c" stroke="#7C006B"></path></g></svg>